<?xml version="1.0" encoding="UTF-8" standalone="no"?>
<svg
   width="256"
   height="256"
   viewBox="0 0 100 100"
   version="1.1"
   id="svg16"
   sodipodi:docname="favicon_grey_darker.svg"
   inkscape:version="1.2.2 (732a01da63, 2022-12-09)"
   xmlns:inkscape="http://www.inkscape.org/namespaces/inkscape"
   xmlns:sodipodi="http://sodipodi.sourceforge.net/DTD/sodipodi-0.dtd"
   xmlns="http://www.w3.org/2000/svg"
   xmlns:svg="http://www.w3.org/2000/svg">
  <defs
     id="defs20" />
  <sodipodi:namedview
     id="namedview18"
     pagecolor="#ffffff"
     bordercolor="#000000"
     borderopacity="0.25"
     inkscape:showpageshadow="2"
     inkscape:pageopacity="0.0"
     inkscape:pagecheckerboard="0"
     inkscape:deskcolor="#d1d1d1"
     showgrid="false"
     inkscape:zoom="2.625"
     inkscape:cx="59.809524"
     inkscape:cy="111.80952"
     inkscape:window-width="1600"
     inkscape:window-height="822"
     inkscape:window-x="1792"
     inkscape:window-y="-8"
     inkscape:window-maximized="1"
     inkscape:current-layer="svg16" />
  <rect
     width="100"
     height="100"
     rx="50"
     fill="#f5f5f5"
     id="rect12"
     style="fill:#808080;fill-opacity:1" />
  <rect
     style="fill:#ffffcc;fill-opacity:1;stroke-width:0.390625"
     id="rect1058"
     width="83.48214"
     height="50.744045"
     x="8.1845236"
     y="24.255953" />
  <g
     aria-label="⌨️"
     transform="scale(0.97877373,1.0216866)"
     id="text14"
     style="font-size:82.2966px;text-anchor:middle;fill:#99ccff;stroke-width:1.17566"
     inkscape:transform-center-x="-0.68494566"
     inkscape:transform-center-y="0.17875185">
    <path
       d="m 14.605984,76.13034 q -4.179124,0 -6.5097898,-2.330665 -2.3306655,-2.330666 -2.3306655,-6.50979 V 29.517031 q 0,-4.179124 2.3306655,-6.509789 2.3306658,-2.330666 6.5097898,-2.330666 h 73.215042 q 4.179124,0 6.509789,2.330666 2.330666,2.330665 2.330666,6.509789 v 37.772854 q 0,4.179124 -2.330666,6.50979 -2.330665,2.330665 -6.509789,2.330665 z m 0,-3.214711 h 73.215042 q 2.853056,0 4.219308,-1.366252 1.406436,-1.406436 1.406436,-4.259492 V 29.517031 q 0,-2.853056 -1.406436,-4.219308 -1.366252,-1.406436 -4.219308,-1.406436 H 14.605984 q -2.853056,0 -4.259492,1.406436 -1.3662523,1.366252 -1.3662523,4.219308 v 37.772854 q 0,2.853056 1.3662523,4.259492 1.406436,1.366252 4.259492,1.366252 z M 15.248926,60.61936 h 3.375447 q 0.884045,0 0.884045,-0.964414 v -3.335262 q 0,-0.401839 -0.281287,-0.683126 -0.241103,-0.321471 -0.602758,-0.321471 h -3.375447 q -0.884045,0 -0.884045,1.004597 v 3.335262 q 0,0.964414 0.884045,0.964414 z m 8.920823,0 h 3.335263 q 0.442022,0 0.723309,-0.281288 0.281288,-0.281287 0.281288,-0.683126 v -3.335262 q 0,-0.401839 -0.281288,-0.683126 -0.241103,-0.321471 -0.642942,-0.321471 h -3.335262 q -0.92423,0 -0.92423,1.004597 v 3.335262 q 0,0.964414 0.843862,0.964414 z m -8.920823,-8.559168 h 9.001191 q 0.884045,0 0.884045,-0.964414 v -3.335262 q 0,-0.964413 -0.884045,-0.964413 h -9.001191 q -0.884045,0 -0.884045,0.964413 v 3.335262 q 0,0.964414 0.884045,0.964414 z m 0,-8.518984 h 6.228502 q 0.884046,0 0.884046,-1.004597 v -3.335263 q 0,-0.964413 -0.884046,-0.964413 h -6.228502 q -0.884045,0 -0.884045,0.964413 v 3.335263 q 0,0.401838 0.281287,0.72331 0.281287,0.281287 0.602758,0.281287 z m 14.345648,8.518984 h 3.335262 q 0.884046,0 0.884046,-0.884046 v -3.335262 q 0,-0.92423 -0.884046,-0.92423 h -3.335262 q -0.92423,0 -0.92423,0.92423 v 3.335262 q 0,0.321471 0.281287,0.602759 0.281288,0.281287 0.642943,0.281287 z M 15.329294,34.98204 h 3.375446 q 0.884046,0 0.884046,-0.964413 V 30.64218 q 0,-0.964413 -0.884046,-0.964413 h -3.375446 q -0.884046,0 -0.884046,0.964413 v 3.375447 q 0,0.964413 0.884046,0.964413 z m 11.331856,8.559168 h 3.335263 q 0.401838,0 0.683126,-0.281287 0.321471,-0.321472 0.321471,-0.72331 v -3.335263 q 0,-0.964413 -1.004597,-0.964413 H 26.66115 q -0.884046,0 -0.884046,0.964413 v 3.335263 q 0,0.401838 0.241104,0.72331 0.281287,0.281287 0.642942,0.281287 z m 11.492592,8.518984 h 3.335262 q 0.884046,0 0.884046,-0.884046 v -3.335262 q 0,-0.92423 -0.884046,-0.92423 h -3.335262 q -0.92423,0 -0.92423,0.92423 v 3.335262 q 0,0.321471 0.281287,0.602759 0.281288,0.281287 0.642943,0.281287 z M 23.446439,34.98204 h 3.375446 q 0.884046,0 0.884046,-0.964413 V 30.64218 q 0,-0.964413 -0.884046,-0.964413 h -3.375446 q -0.884046,0 -0.884046,0.964413 v 3.375447 q 0,0.964413 0.884046,0.964413 z m 9.563765,25.63732 h 36.326234 q 0.964413,0 0.964413,-0.964414 v -3.335262 q 0,-0.442023 -0.281287,-0.72331 -0.241103,-0.281287 -0.683126,-0.281287 H 33.010204 q -0.964413,0 -0.964413,1.004597 v 3.335262 q 0,0.361655 0.281287,0.683126 0.321471,0.281288 0.683126,0.281288 z m 1.848459,-17.078152 h 3.335262 q 0.964414,0 0.964414,-1.004597 v -3.335263 q 0,-0.964413 -0.964414,-0.964413 h -3.335262 q -0.964413,0 -0.964413,0.964413 v 3.335263 q 0,0.401838 0.281287,0.72331 0.321471,0.281287 0.683126,0.281287 z m 11.814063,8.518984 h 3.375446 q 0.884046,0 0.884046,-0.884046 v -3.335262 q 0,-0.92423 -0.884046,-0.92423 h -3.375446 q -0.884046,0 -0.884046,0.92423 v 3.335262 q 0,0.321471 0.241103,0.602759 0.281288,0.281287 0.642943,0.281287 z M 31.563584,34.98204 h 3.375447 q 0.401838,0 0.683126,-0.281287 0.281287,-0.321471 0.281287,-0.683126 V 30.64218 q 0,-0.964413 -0.964413,-0.964413 h -3.375447 q -0.964413,0 -0.964413,0.964413 v 3.375447 q 0,0.964413 0.964413,0.964413 z m 11.412224,8.559168 h 3.335263 q 0.401838,0 0.683126,-0.281287 0.321471,-0.321472 0.321471,-0.72331 v -3.335263 q 0,-0.964413 -1.004597,-0.964413 h -3.335263 q -0.964413,0 -0.964413,0.964413 v 3.335263 q 0,0.401838 0.281287,0.72331 0.321471,0.281287 0.683126,0.281287 z m 12.256085,8.518984 h 3.335263 q 0.924229,0 0.924229,-0.884046 v -3.335262 q 0,-0.92423 -0.924229,-0.92423 h -3.335263 q -0.884045,0 -0.884045,0.92423 v 3.335262 q 0,0.321471 0.241103,0.602759 0.281287,0.281287 0.642942,0.281287 z M 39.761097,34.98204 h 3.375447 q 0.401838,0 0.683126,-0.281287 0.281287,-0.321471 0.281287,-0.683126 V 30.64218 q 0,-0.964413 -0.964413,-0.964413 h -3.375447 q -0.964413,0 -0.964413,0.964413 v 3.375447 q 0,0.964413 0.964413,0.964413 z m 11.331856,8.559168 h 3.335263 q 0.401839,0 0.683126,-0.281287 0.321471,-0.321472 0.321471,-0.72331 v -3.335263 q 0,-0.964413 -1.004597,-0.964413 h -3.335263 q -0.964413,0 -0.964413,0.964413 v 3.335263 q 0,0.401838 0.281287,0.72331 0.321471,0.281287 0.683126,0.281287 z m 12.698108,8.518984 h 3.335263 q 0.884046,0 0.884046,-0.884046 v -3.335262 q 0,-0.92423 -0.884046,-0.92423 h -3.335263 q -0.924229,0 -0.924229,0.92423 v 3.335262 q 0,0.321471 0.281287,0.602759 0.281287,0.281287 0.642942,0.281287 z M 47.878242,34.98204 h 3.375447 q 0.401839,0 0.683126,-0.281287 0.281287,-0.321471 0.281287,-0.683126 V 30.64218 q 0,-0.964413 -0.964413,-0.964413 h -3.375447 q -0.964413,0 -0.964413,0.964413 v 3.375447 q 0,0.964413 0.964413,0.964413 z m 27.003572,25.63732 h 3.375447 q 0.964413,0 0.964413,-0.964414 v -3.335262 q 0,-0.401839 -0.281287,-0.683126 -0.241104,-0.321471 -0.683126,-0.321471 h -3.375447 q -0.964413,0 -0.964413,1.004597 v 3.335262 q 0,0.964414 0.964413,0.964414 z M 59.290466,43.541208 h 3.335263 q 0.401839,0 0.683126,-0.281287 0.321471,-0.321472 0.321471,-0.72331 v -3.335263 q 0,-0.964413 -1.004597,-0.964413 h -3.335263 q -0.964413,0 -0.964413,0.964413 v 3.335263 q 0,0.401838 0.281287,0.72331 0.321471,0.281287 0.683126,0.281287 z M 56.075755,34.98204 h 3.375447 q 0.401838,0 0.683126,-0.281287 0.281287,-0.321471 0.281287,-0.683126 V 30.64218 q 0,-0.964413 -0.964413,-0.964413 h -3.375447 q -0.964413,0 -0.964413,0.964413 v 3.375447 q 0,0.964413 0.964413,0.964413 z m 27.646514,25.63732 h 3.335263 q 0.442023,0 0.72331,-0.281288 0.281287,-0.281287 0.281287,-0.683126 v -3.335262 q 0,-0.401839 -0.281287,-0.683126 -0.281287,-0.321471 -0.72331,-0.321471 h -3.335263 q -0.964413,0 -0.964413,1.004597 v 3.335262 q 0,0.361655 0.281287,0.683126 0.321471,0.281288 0.683126,0.281288 z M 67.407611,43.541208 h 3.335263 q 0.401839,0 0.683126,-0.281287 0.321471,-0.321472 0.321471,-0.72331 v -3.335263 q 0,-0.964413 -1.004597,-0.964413 h -3.335263 q -0.964413,0 -0.964413,0.964413 v 3.335263 q 0,0.401838 0.281287,0.72331 0.321471,0.281287 0.683126,0.281287 z m 4.902434,8.599352 h 14.707303 q 0.964413,0 0.964413,-0.964414 V 47.59978 q 0,-0.964413 -0.964413,-0.964413 H 72.310045 q -0.361655,0 -0.683126,0.281287 -0.281287,0.281287 -0.281287,0.683126 v 3.576366 q 0,0.401839 0.281287,0.683126 0.321471,0.281288 0.683126,0.281288 z M 64.1929,34.98204 h 3.375447 q 0.401839,0 0.683126,-0.281287 0.281287,-0.321471 0.281287,-0.683126 V 30.64218 q 0,-0.964413 -0.964413,-0.964413 H 64.1929 q -0.964413,0 -0.964413,0.964413 v 3.375447 q 0,0.964413 0.964413,0.964413 z m 11.412224,8.559168 h 3.335263 q 0.964413,0 0.964413,-1.004597 v -3.335263 q 0,-0.964413 -0.964413,-0.964413 h -3.335263 q -0.964413,0 -0.964413,0.964413 v 3.335263 q 0,0.401838 0.281287,0.72331 0.281287,0.281287 0.683126,0.281287 z M 72.310045,34.98204 h 3.375447 q 0.401839,0 0.683126,-0.281287 0.281287,-0.321471 0.281287,-0.683126 V 30.64218 q 0,-0.964413 -0.964413,-0.964413 h -3.375447 q -0.964413,0 -0.964413,0.964413 v 3.375447 q 0,0.401838 0.281287,0.683126 0.321471,0.281287 0.683126,0.281287 z m 11.412224,8.559168 h 3.335263 q 0.401839,0 0.683126,-0.281287 0.321471,-0.321472 0.321471,-0.72331 v -3.335263 q 0,-0.964413 -1.004597,-0.964413 h -3.335263 q -0.964413,0 -0.964413,0.964413 v 3.335263 q 0,0.401838 0.281287,0.72331 0.321471,0.281287 0.683126,0.281287 z M 80.869213,34.98204 h 6.188319 q 0.401839,0 0.683126,-0.281287 0.321471,-0.321471 0.321471,-0.683126 V 30.64218 q 0,-0.442023 -0.321471,-0.683126 -0.281287,-0.281287 -0.683126,-0.281287 h -6.188319 q -0.964413,0 -0.964413,0.964413 v 3.375447 q 0,0.964413 0.964413,0.964413 z M 93.44677,51.819088 h 3.214711 v 8.036778 q 0,4.179124 -2.330666,6.509789 -2.330665,2.330666 -6.509789,2.330666 H 14.605984 q -4.179124,0 -6.5097898,-2.330666 Q 5.7655287,64.03499 5.7655287,59.855866 v -8.036778 h 3.214711 v 8.036778 q 0,2.853056 1.3662523,4.259492 1.406436,1.366252 4.259492,1.366252 h 73.215042 q 2.853056,0 4.219308,-1.366252 1.406436,-1.406436 1.406436,-4.259492 z"
       id="path1569" />
  </g>
</svg>
